{"title":"Prague 2013 Hindi Movies WEBRip XviD with Sample ~ â˜»rDXâ˜»","uid":9256893,"size":739608686,"categoryP":"video","categoryS":"movies","magnet":"?xt=urn:btih:b5ab0605321572780d84c5376ce805cb0148374d&amp;dn=Prague+2013+Hindi+Movies+WEBRip+XviD+with+Sample+%7E+%E2%98%BBrDX%E2%98%BB&amp;tr=udp%3A%2F%2Ftracker.openbittorrent.com%3A80&amp;tr=udp%3A%2F%2Fopen.demonii.com%3A1337&amp;tr=udp%3A%2F%2Ftracker.coppersurfer.tk%3A6969&amp;tr=udp%3A%2F%2Fexodus.desync.com%3A6969","seeders":1,"leechers":0,"uploader":"basicssom","files":2,"time":1385566290,"description":" &lt;a href=&quot;http://s5.postimg.org/hgeuxszk7/logo.png&quot; rel=&quot;nofollow&quot; target=&quot;_NEW&quot;&gt;http://s5.postimg.org/hgeuxszk7/logo.png&lt;/a&gt;\n\nPrague 2013 Hindi Movies WEBRip XviD with Sample ~ â˜»rDXâ˜»\n\nPlease check SCREEN SHOTS first :\n &lt;a href=&quot;\nhttp://imageshere.co.nr/2013/11/Prague/1.html&quot; rel=&quot;nofollow&quot; target=&quot;_NEW&quot;&gt;\nhttp://imageshere.co.nr/2013/11/Prague/1.html&lt;/a&gt;\n &lt;a href=&quot;\nhttp://imageshere.co.nr/2013/11/Prague/2.html&quot; rel=&quot;nofollow&quot; target=&quot;_NEW&quot;&gt;\nhttp://imageshere.co.nr/2013/11/Prague/2.html&lt;/a&gt;\n &lt;a href=&quot;\nhttp://imageshere.co.nr/2013/11/Prague/3.html&quot; rel=&quot;nofollow&quot; target=&quot;_NEW&quot;&gt;\nhttp://imageshere.co.nr/2013/11/Prague/3.html&lt;/a&gt;\n &lt;a href=&quot;\nhttp://imageshere.co.nr/2013/11/Prague/4.html&quot; rel=&quot;nofollow&quot; target=&quot;_NEW&quot;&gt;\nhttp://imageshere.co.nr/2013/11/Prague/4.html&lt;/a&gt;\n &lt;a href=&quot;\nhttp://imageshere.co.nr/2013/11/Prague/5.html&quot; rel=&quot;nofollow&quot; target=&quot;_NEW&quot;&gt;\nhttp://imageshere.co.nr/2013/11/Prague/5.html&lt;/a&gt;\n &lt;a href=&quot;\nhttp://imageshere.co.nr/2013/11/Prague/6.html&quot; rel=&quot;nofollow&quot; target=&quot;_NEW&quot;&gt;\nhttp://imageshere.co.nr/2013/11/Prague/6.html&lt;/a&gt;\n\nAll rDX torrents are Seeding From the 1Gbps Seedbox 24X7\n &lt;a href=&quot;\nhttp://users2.jabry.com/myimghost/Prague/19.jpg&quot; rel=&quot;nofollow&quot; target=&quot;_NEW&quot;&gt;\nhttp://users2.jabry.com/myimghost/Prague/19.jpg&lt;/a&gt;\n &lt;a href=&quot;\nhttp://users2.jabry.com/myimghost/Prague/20.jpg&quot; rel=&quot;nofollow&quot; target=&quot;_NEW&quot;&gt;\nhttp://users2.jabry.com/myimghost/Prague/20.jpg&lt;/a&gt;\n &lt;a href=&quot;\nhttp://users2.jabry.com/myimghost/Prague/21.jpg&quot; rel=&quot;nofollow&quot; target=&quot;_NEW&quot;&gt;\nhttp://users2.jabry.com/myimghost/Prague/21.jpg&lt;/a&gt;\n\nFormat                                   : AVI\nFormat/Info                              : Audio Video Interleave\nFile size                                : 699 MiB\nDuration                                 : 1h 47mn\nOverall bit rate                         : 908 Kbps\n\nVideo\nID                                       : 0\nFormat                                   : MPEG-4 Visual\nFormat profile                           : Advanced Simple@L5\nFormat settings, BVOP                    : 2\nFormat settings, QPel                    : No\nFormat settings, GMC                     : No warppoints\nFormat settings, Matrix                  : Default (H.263)\nCodec ID                                 : XVID\nCodec ID/Hint                            : XviD\nDuration                                 : 1h 47mn\nBit rate                                 : 820 Kbps\nWidth                                    : 640 pixels\nHeight                                   : 272 pixels\nDisplay aspect ratio                     : 2.35:1\nFrame rate                               : 29.970 fps\nColor space                              : YUV\nChroma subsampling                       : 4:2:0\nBit depth                                : 8 bits\nScan type                                : Progressive\nCompression mode                         : Lossy\nBits/(Pixel*Frame)                       : 0.157\nStream size                              : 632 MiB (90%)\nWriting library                          : XviD 1.2.1 (UTC 2008-12-04)\n\nAudio\nID                                       : 1\nFormat                                   : MPEG Audio\nFormat version                           : Version 1\nFormat profile                           : Layer 3\nMode                                     : Joint stereo\nMode extension                           : MS Stereo\nCodec ID                                 : 55\nCodec ID/Hint                            : MP3\nDuration                                 : 1h 47mn\nBit rate mode                            : Constant\nBit rate                                 : 80.0 Kbps\nChannel(s)                               : 2 channels\nSampling rate                            : 32.0 KHz\nCompression mode                         : Lossy\nStream size                              : 61.6 MiB (9%)\nAlignment                                : Aligned on interleaves\nInterleave, duration                     : 133 ms (4.00 video frames)\nInterleave, preload duration             : 216 ms\nTitle                                    : VTS_01_1 T80 3_2ch 448Kbps DELAY 0ms\nWriting library                          : LAME3.99r\nEncoding settings                        : -m j -V 4 -q 2 -lowpass 13.5 -b 80","torrent":{"xt":"urn:btih:b5ab0605321572780d84c5376ce805cb0148374d","amp;dn":"Prague+2013+Hindi+Movies+WEBRip+XviD+with+Sample+%7E+%E2%98%BBrDX%E2%98%BB","amp;tr":["udp%3A%2F%2Ftracker.openbittorrent.com%3A80","udp%3A%2F%2Fopen.demonii.com%3A1337","udp%3A%2F%2Ftracker.coppersurfer.tk%3A6969","udp%3A%2F%2Fexodus.desync.com%3A6969"],"infoHash":"b5ab0605321572780d84c5376ce805cb0148374d","infoHashBuffer":{"type":"Buffer","data":[181,171,6,5,50,21,114,120,13,132,197,55,108,232,5,203,1,72,55,77]},"announce":[],"urlList":[]}}